<svg width="35" height="35" viewBox="0 0 35 35" fill="none" xmlns="http://www.w3.org/2000/svg">
<path fill-rule="evenodd" clip-rule="evenodd" d="M6.68424 10.816C6.68424 4.84248 11.5267 0 17.5003 0C23.4737 0 28.3161 4.84248 28.3161 10.816V12.1528C28.3161 15.3619 28.7519 18.2069 29.416 20.1989C29.7506 21.2027 30.1167 21.9097 30.4526 22.3358C30.7012 22.6514 30.8497 22.7151 30.8837 22.7258C31.682 22.7341 32.3266 23.3838 32.3266 24.184V24.4879C32.3266 25.2933 31.6737 25.9462 30.8682 25.9462H4.13216C3.32674 25.9462 2.67383 25.2933 2.67383 24.4879V24.184C2.67383 23.3838 3.31843 22.7341 4.11673 22.7258C4.15077 22.7151 4.29914 22.6514 4.5478 22.3358C4.88366 21.9097 5.24989 21.2027 5.58446 20.1989C6.24849 18.2069 6.68424 15.3619 6.68424 12.1528V10.816ZM4.10918 22.7277L4.11312 22.7268L4.11081 22.7274L4.10918 22.7277Z" fill="#AE9AF8"/>
<path d="M13.4898 28.4375C12.9392 28.4375 12.4356 28.7475 12.1877 29.2391C11.9398 29.7309 11.9899 30.3202 12.3172 30.7628C13.5307 32.404 15.3639 33.5417 17.5002 33.5417C19.6365 33.5417 21.4698 32.404 22.6833 30.7628C23.0107 30.3202 23.0607 29.7309 22.8128 29.2391C22.5649 28.7475 22.0613 28.4375 21.5106 28.4375H13.4898Z" fill="#AE9AF8"/>
</svg>
